<?xml version="1.0" standalone="no"?>
<!DOCTYPE svg PUBLIC "-//W3C//DTD SVG 20010904//EN"
 "http://www.w3.org/TR/2001/REC-SVG-20010904/DTD/svg10.dtd">
<svg version="1.0" xmlns="http://www.w3.org/2000/svg"
 width="1024.000000pt" height="1024.000000pt" viewBox="0 0 1024.000000 1024.000000"
 preserveAspectRatio="xMidYMid meet">

<g transform="translate(0.000000,1024.000000) scale(0.100000,-0.100000)"
fill="#000000" stroke="none">
<path d="M4870 9059 c-575 -41 -1181 -224 -1650 -497 -566 -330 -1066 -839
-1365 -1391 -188 -347 -326 -737 -384 -1090 -105 -631 -64 -1260 120 -1812
191 -575 512 -1083 950 -1504 454 -436 1055 -773 1634 -919 322 -80 525 -106
875 -113 236 -4 302 -2 465 16 611 68 1128 251 1628 577 54 36 104 69 110 74
7 6 55 43 107 82 139 104 189 147 349 303 476 465 799 1008 981 1648 154 540
176 1163 61 1719 -190 914 -706 1704 -1451 2223 -441 306 -863 489 -1410 609
-295 65 -724 97 -1020 75z m640 -135 c787 -90 1470 -396 2060 -920 598 -532
997 -1312 1107 -2165 25 -189 24 -672 0 -849 -80 -570 -261 -1060 -564 -1524
-306 -469 -723 -865 -1208 -1148 -259 -152 -651 -308 -936 -373 -308 -71 -545
-98 -869 -98 -419 -1 -740 53 -1155 195 -254 86 -383 146 -650 303 -597 352
-1086 877 -1398 1500 -240 482 -357 992 -357 1560 1 314 22 518 86 806 159
719 546 1365 1119 1865 343 299 743 525 1215 686 248 84 625 157 921 177 165
12 462 4 629 -15z"/>
<path d="M5092 8523 c-33 -6 -112 -85 -112 -111 0 -29 -9 -28 -71 11 -45 28
-61 32 -118 32 -77 0 -123 -22 -158 -75 -48 -70 -50 -119 -8 -246 6 -19 3 -20
-54 -16 -123 9 -221 -71 -229 -188 -4 -49 0 -66 22 -107 15 -27 39 -57 54 -66
60 -37 60 -32 5 -85 -78 -75 -94 -174 -42 -259 36 -58 92 -88 168 -90 l65 -1
-3 -50 c-4 -72 14 -123 59 -175 48 -55 93 -72 167 -64 53 6 109 36 140 77 6 8
14 12 17 9 3 -3 -3 -93 -14 -200 -34 -329 -39 -432 -35 -784 3 -359 20 -607
71 -1050 8 -77 -4 -66 -45 37 -59 150 -168 351 -293 542 -32 49 -61 100 -65
115 -6 24 -3 49 32 236 38 208 -4 525 -70 525 -6 0 -23 -12 -37 -27 -65 -70
-96 -306 -64 -486 10 -53 16 -101 14 -106 -1 -6 -36 34 -76 88 -40 54 -120
149 -177 211 -57 61 -107 120 -110 130 -3 11 11 59 35 114 54 127 64 180 57
301 -6 114 -28 183 -105 335 -80 157 -97 180 -135 180 -43 0 -91 -31 -123 -80
-15 -22 -33 -40 -41 -40 -7 0 -35 11 -61 24 -142 72 -248 26 -240 -105 l3 -57
-63 -5 c-75 -6 -106 -29 -123 -90 -10 -37 -5 -75 22 -177 3 -11 -10 -16 -56
-21 -93 -9 -126 -37 -109 -91 24 -82 211 -273 323 -332 81 -43 202 -76 275
-76 68 0 175 26 208 50 l27 20 35 -30 c143 -126 403 -431 530 -622 21 -33 43
-55 49 -51 5 3 7 1 3 -5 -3 -6 5 -27 19 -48 45 -66 27 -56 -62 34 -125 127
-233 208 -348 263 -142 68 -275 98 -511 114 -157 12 -170 -16 -65 -135 242
-274 411 -367 786 -431 216 -38 272 -57 329 -114 75 -75 186 -315 244 -527 26
-96 30 -139 14 -138 -4 1 -36 44 -71 96 -122 181 -233 278 -386 339 -95 38
-198 54 -342 55 -140 0 -173 -8 -173 -44 0 -20 25 -45 128 -124 204 -159 274
-194 502 -253 69 -17 145 -42 170 -54 62 -31 141 -113 180 -186 54 -102 81
-91 105 43 30 173 88 323 179 462 109 169 156 201 331 230 327 55 486 163 666
454 35 57 81 124 102 149 41 50 45 64 22 83 -12 10 -48 11 -143 7 -70 -3 -138
-8 -152 -11 -14 -3 -54 -10 -89 -16 -81 -14 -187 -52 -276 -99 -142 -73 -270
-236 -364 -466 -23 -55 -66 -140 -96 -190 -29 -49 -59 -102 -66 -117 -17 -38
-30 -35 -22 5 19 103 77 309 117 417 60 161 183 410 253 514 124 182 313 386
358 386 11 0 35 -9 53 -20 61 -37 136 -60 228 -70 141 -15 270 12 389 83 116
68 315 283 315 339 0 25 -37 46 -121 70 -41 11 -75 21 -77 23 -2 1 6 18 17 36
44 77 32 166 -29 207 -31 21 -43 23 -110 19 -41 -3 -88 -9 -103 -12 l-29 -8 9
49 c12 75 10 181 -5 196 -8 8 -38 13 -76 13 -156 0 -400 -184 -496 -375 -51
-100 -63 -169 -56 -310 4 -69 7 -133 7 -142 0 -10 -52 -74 -115 -143 -63 -69
-142 -161 -175 -204 -199 -265 -348 -622 -416 -1000 -37 -206 -47 -251 -55
-251 -15 0 -22 76 -50 520 -6 96 -15 213 -21 260 -13 120 -11 245 6 314 27
116 70 176 268 382 102 105 213 317 224 429 10 96 -37 96 -164 -1 -181 -139
-289 -312 -330 -530 -10 -56 -19 -81 -24 -73 -29 45 13 809 57 1059 l6 35 29
-59 c16 -33 37 -68 46 -79 54 -59 174 -76 248 -34 21 12 53 42 70 65 27 40 30
51 30 123 0 43 1 79 2 79 1 0 26 -9 55 -21 107 -42 217 -5 266 91 12 24 22 61
22 82 0 72 -48 151 -113 185 -31 16 -29 25 5 30 35 5 111 53 137 85 39 48 52
99 41 158 -12 64 -21 80 -64 118 -33 29 -117 62 -158 62 -15 0 -16 4 -8 26 24
62 5 170 -38 217 -63 71 -172 93 -245 49 -21 -12 -40 -22 -42 -22 -2 0 -14 24
-28 53 -53 114 -136 155 -265 130z m126 -102 c47 -24 62 -50 68 -115 4 -43 -3
-74 -45 -195 -27 -80 -47 -149 -44 -154 3 -6 1 -7 -5 -3 -6 3 -13 2 -17 -4
-11 -17 -62 -12 -70 8 -21 54 -57 218 -62 283 -7 97 0 125 43 166 41 39 77 42
132 14z m-352 -76 c49 -32 79 -98 119 -258 33 -131 37 -158 26 -171 -29 -35
-57 -19 -184 107 -126 124 -147 157 -147 230 0 96 103 147 186 92z m698 -69
c124 -52 71 -213 -102 -313 -26 -15 -65 -40 -86 -55 -42 -30 -65 -35 -84 -16
-20 20 -14 60 25 169 54 154 76 184 158 216 40 15 50 15 89 -1z m-869 -278
c67 -41 192 -149 198 -171 3 -10 -2 -26 -12 -36 -14 -14 -38 -17 -171 -16
-140 0 -159 2 -196 22 -53 28 -74 61 -74 117 0 55 27 90 85 111 53 20 108 11
170 -27z m1101 -47 c70 -43 69 -132 -3 -187 -56 -43 -140 -57 -291 -48 -65 3
-120 9 -124 13 -4 4 -10 20 -13 36 -6 28 -1 33 82 87 140 90 200 117 263 118
37 0 65 -6 86 -19z m-608 -105 c15 -8 40 -28 56 -44 88 -93 14 -252 -117 -252
-71 0 -123 34 -158 103 -47 90 40 206 154 207 21 0 50 -6 65 -14z m-319 -185
c19 -26 31 -74 15 -58 -4 3 -36 -21 -73 -55 -99 -91 -162 -130 -220 -136 -93
-9 -162 52 -147 129 19 94 129 147 313 148 90 1 92 1 112 -28z m765 -55 c84
-35 146 -103 146 -159 0 -72 -64 -123 -142 -111 -76 12 -109 34 -240 161 l-78
75 16 30 16 31 122 -5 c79 -4 135 -11 160 -22z m-682 -90 c8 -7 28 -21 46 -30
22 -11 32 -24 32 -39 0 -63 -65 -233 -107 -280 -27 -29 -68 -47 -109 -47 -79
0 -137 113 -99 194 16 34 197 216 215 216 5 0 15 -6 22 -14z m386 -96 c82 -98
94 -121 100 -202 l5 -68 -40 -40 c-31 -30 -49 -40 -73 -40 -73 0 -136 85 -163
221 -27 135 -29 156 -15 165 25 17 93 42 108 41 8 -1 43 -36 78 -77z m-1303
-372 c110 -224 123 -370 48 -540 l-26 -58 -22 23 c-57 57 -128 195 -161 312
-21 74 -18 191 6 261 22 63 64 134 80 134 5 0 39 -60 75 -132z m2393 44 c4
-44 -25 -173 -58 -254 -50 -123 -82 -162 -194 -235 -55 -37 -122 -84 -147
-105 -25 -21 -48 -38 -52 -38 -12 0 -7 143 8 213 26 124 111 250 237 351 51
41 177 108 193 103 6 -2 11 -18 13 -35z m-2697 1 c41 -21 53 -33 52 -48 -1
-11 -3 -39 -4 -62 -1 -24 -8 -44 -16 -47 -7 -3 -13 -1 -13 3 0 5 -34 25 -75
45 -67 32 -75 39 -81 71 -13 70 43 85 137 38z m-91 -198 c117 -49 126 -56 155
-148 15 -44 33 -94 41 -109 29 -55 17 -59 -53 -17 -76 44 -197 93 -258 104
-48 8 -61 18 -85 65 -30 58 -35 104 -14 125 25 25 129 15 214 -20z m3071 -21
c8 -10 8 -22 0 -46 -19 -54 -58 -86 -120 -99 -31 -6 -87 -17 -125 -25 -38 -8
-70 -13 -72 -11 -2 2 15 38 37 80 36 65 48 78 83 93 79 32 174 36 197 8z
m-3225 -239 c153 -32 328 -122 453 -233 l44 -39 -66 -16 c-175 -44 -324 -5
-480 126 -45 39 -127 140 -127 158 0 20 89 22 176 4z m3266 -22 c43 -9 78 -21
78 -26 0 -13 -93 -112 -149 -159 -128 -107 -301 -156 -456 -129 -67 12 -157
50 -171 73 -9 15 35 53 143 124 177 118 368 158 555 117z m-1334 -60 c-28 -64
-101 -177 -154 -238 -82 -95 -94 -108 -99 -104 -11 12 95 231 134 276 44 49
118 113 132 113 4 0 -1 -21 -13 -47z m-841 -393 c-9 -179 -26 -195 -26 -25 -1
77 2 151 6 164 l6 25 10 -25 c5 -13 7 -76 4 -139z m-637 -317 c168 -27 296
-83 438 -190 97 -74 228 -191 221 -197 -7 -8 -210 31 -309 58 -174 49 -341
150 -488 295 -68 68 -70 68 138 34z m2295 -73 c-3 -5 -14 -10 -23 -10 -9 0
-84 -33 -167 -73 -187 -92 -311 -175 -463 -312 l-55 -50 53 80 c61 90 161 194
233 242 77 50 194 94 302 113 123 22 128 22 120 10z m25 -67 c0 -19 -63 -114
-117 -178 -65 -78 -167 -159 -249 -199 -54 -26 -200 -68 -284 -82 -42 -6 -44
-6 -30 11 36 44 193 173 284 233 88 59 369 218 389 221 4 1 7 -2 7 -6z m-1785
-713 c44 -12 109 -38 145 -57 68 -38 224 -183 204 -190 -30 -10 -254 61 -355
112 -98 50 -229 141 -229 159 0 14 148 -1 235 -24z"/>
<path d="M4400 4184 c-103 -37 -178 -103 -222 -192 -31 -64 -33 -73 -32 -177
0 -90 4 -120 23 -167 28 -72 93 -145 163 -183 48 -27 62 -29 148 -30 82 0 103
4 151 26 79 37 133 90 170 165 27 54 33 79 37 159 7 133 -20 217 -96 297 -71
75 -130 100 -242 105 -47 1 -92 0 -100 -3z m184 -98 c82 -62 120 -163 114
-299 -8 -173 -84 -277 -203 -277 -57 0 -93 18 -137 69 -52 61 -73 137 -72 256
2 143 39 230 116 269 51 26 136 17 182 -18z"/>
<path d="M2817 4173 c-16 -15 -5 -35 28 -49 21 -8 37 -23 40 -37 3 -12 4 -143
3 -292 l-3 -270 -37 -24 c-66 -42 -44 -51 124 -51 136 0 149 2 146 17 -2 10
-17 21 -35 26 -43 13 -53 46 -53 178 l0 109 60 0 c79 0 105 -13 119 -61 11
-35 33 -51 44 -31 3 4 6 56 8 116 4 118 -6 143 -36 87 -21 -41 -43 -51 -122
-54 l-68 -2 0 140 0 140 82 0 c94 0 129 -17 148 -75 13 -38 35 -56 59 -47 19
8 22 89 5 150 l-10 37 -248 0 c-136 0 -251 -3 -254 -7z m276 -710 c-7 -2 -19
-2 -25 0 -7 3 -2 5 12 5 14 0 19 -2 13 -5z"/>
<path d="M3460 4161 c0 -11 12 -23 31 -31 17 -7 35 -24 40 -37 5 -13 9 -145 9
-292 0 -291 1 -288 -57 -305 -14 -5 -23 -15 -23 -27 0 -18 10 -19 265 -19
l265 0 10 24 c12 31 24 161 16 174 -12 20 -42 0 -66 -45 -36 -69 -67 -83 -177
-83 l-93 0 0 281 0 281 29 29 c16 16 37 29 46 29 10 0 15 7 13 18 -3 15 -20
17 -156 20 -144 2 -152 1 -152 -17z"/>
<path d="M4897 4174 c-14 -14 -6 -30 24 -48 36 -22 48 -47 135 -295 35 -103
81 -231 102 -286 38 -100 38 -100 74 -103 34 -3 38 -1 47 30 5 18 35 105 66
193 32 88 60 170 62 183 3 12 8 22 12 22 3 0 32 -80 64 -178 80 -243 83 -247
132 -247 32 0 42 5 52 25 6 14 51 144 99 290 97 298 110 328 155 363 21 17 30
30 26 41 -5 13 -25 16 -122 16 -103 0 -115 -2 -115 -17 0 -10 14 -26 30 -35
24 -14 30 -24 30 -50 0 -31 -99 -359 -122 -406 -12 -22 -12 -22 -25 10 -8 18
-25 65 -38 103 -13 39 -40 115 -59 170 -43 122 -45 158 -11 181 14 9 25 23 25
30 0 11 -24 14 -120 14 -140 0 -152 -8 -101 -65 30 -34 55 -101 53 -140 -1
-24 -105 -325 -112 -325 -8 0 -150 414 -150 438 0 16 10 27 35 39 22 10 35 23
33 33 -3 12 -26 15 -139 18 -74 1 -138 -1 -142 -4z"/>
<path d="M6046 4165 c-4 -11 6 -23 30 -37 20 -11 40 -32 45 -45 10 -28 12
-408 3 -502 -6 -56 -10 -63 -38 -78 -30 -15 -46 -31 -46 -45 0 -12 548 -10
555 2 4 6 9 51 12 100 6 84 5 90 -13 90 -13 0 -32 -19 -54 -52 -43 -65 -73
-80 -164 -82 -110 -2 -106 -7 -106 139 l0 125 63 0 c69 0 86 -10 106 -63 6
-15 17 -27 25 -27 11 0 16 22 20 93 7 105 -2 170 -21 146 -59 -71 -68 -77
-126 -83 -53 -6 -58 -5 -65 16 -5 13 -7 68 -5 123 1 55 3 108 3 118 0 15 10
17 75 17 105 0 137 -16 167 -79 18 -40 28 -51 43 -49 18 3 20 11 20 78 0 120
24 110 -269 110 -220 0 -255 -2 -260 -15z"/>
<path d="M6757 4165 c-5 -11 4 -22 28 -36 19 -12 37 -31 40 -43 3 -11 4 -145
3 -296 l-3 -275 -32 -14 c-20 -9 -33 -22 -33 -33 0 -17 11 -18 145 -18 124 0
145 2 145 16 0 8 -13 20 -29 25 -41 14 -51 47 -51 164 l0 103 32 7 c28 7 36 4
60 -26 15 -18 52 -83 82 -145 30 -61 64 -119 77 -128 17 -12 46 -16 106 -16
75 0 83 2 83 19 0 12 -9 22 -22 26 -35 11 -65 43 -103 109 -18 34 -50 83 -69
111 -20 27 -36 57 -36 65 0 9 15 22 34 28 105 38 149 199 80 290 -51 66 -92
76 -325 80 -183 3 -207 2 -212 -13z m370 -65 c38 -22 50 -43 59 -98 16 -102
-74 -193 -181 -180 l-30 3 -3 148 -3 147 63 0 c45 0 72 -6 95 -20z"/>
<path d="M3886 3199 c-58 -9 -121 -50 -154 -99 -20 -30 -23 -45 -20 -100 6
-105 38 -138 211 -214 131 -58 170 -115 137 -200 -18 -49 -103 -82 -164 -65
-51 14 -84 45 -117 110 -52 104 -85 92 -81 -29 2 -42 5 -84 8 -93 12 -43 242
-75 335 -47 50 14 112 67 133 112 24 51 23 134 -3 183 -29 57 -66 85 -196 147
-119 57 -145 81 -145 131 1 57 51 95 125 95 59 0 81 -18 125 -98 30 -55 55
-65 70 -27 14 37 1 134 -21 156 -33 33 -158 53 -243 38z"/>
<path d="M5489 3200 c-110 -19 -216 -99 -262 -198 -19 -41 -22 -65 -22 -177 0
-123 1 -133 29 -189 32 -65 87 -125 138 -152 55 -29 154 -44 222 -33 122 19
205 80 263 191 24 46 28 67 31 163 3 92 0 120 -17 169 -58 164 -212 255 -382
226z m171 -115 c16 -15 41 -55 56 -88 36 -81 45 -222 20 -309 -57 -194 -236
-234 -342 -77 -36 54 -54 133 -54 234 0 157 63 260 175 285 41 9 112 -13 145
-45z"/>
<path d="M4358 3183 c-10 -3 -18 -13 -18 -24 0 -11 7 -19 18 -19 25 -1 50 -22
62 -54 11 -29 15 -513 4 -541 -4 -9 -24 -25 -46 -36 -69 -35 -46 -44 117 -44
158 0 190 10 121 39 -42 18 -44 23 -50 178 -3 88 -1 120 9 128 8 7 64 10 151
8 l139 -3 3 -134 c2 -126 1 -136 -19 -157 -12 -13 -31 -24 -43 -26 -11 -2 -21
-10 -21 -18 0 -13 24 -15 149 -18 111 -2 151 1 157 10 10 16 -8 38 -32 38 -10
0 -25 10 -33 22 -14 19 -16 64 -16 293 0 148 4 275 8 282 4 7 24 19 45 28 38
16 42 22 29 41 -8 12 -233 19 -274 9 -38 -10 -35 -33 6 -50 43 -18 47 -30 48
-150 2 -76 -1 -99 -13 -104 -7 -4 -78 -6 -156 -3 l-143 4 6 105 c5 115 15 141
57 150 43 9 36 40 -10 46 -45 5 -231 5 -255 0z"/>
<path d="M6013 3184 c-23 -11 -14 -39 17 -51 17 -6 34 -23 40 -38 13 -34 13
-515 0 -550 -6 -15 -24 -32 -46 -41 -69 -29 -37 -39 127 -39 126 0 154 3 154
14 0 8 -16 19 -35 26 -26 9 -38 20 -47 46 -13 38 -17 158 -5 175 4 7 46 13 97
16 133 7 210 50 241 135 30 86 9 198 -47 250 -51 47 -92 55 -294 59 -104 2
-196 1 -202 -2z m355 -80 c46 -34 64 -80 60 -156 -3 -58 -8 -71 -32 -97 -38
-40 -73 -53 -132 -49 l-49 3 -3 130 c-2 72 0 145 3 164 l6 33 60 -4 c38 -3 69
-11 87 -24z"/>
</g>
</svg>
